<svg xmlns="http://www.w3.org/2000/svg" xmlns:xlink="http://www.w3.org/1999/xlink" viewBox="0 0 383 324.52">
  <defs>
    <clipPath id="clip-path">
      <path id="SVGID" d="M198.49,74.57H249v50.54H198.49Z" style="fill: none"/>
    </clipPath>
    <clipPath id="clip-path-2">
      <rect id="SVGID-2" data-name="SVGID" x="137.78" y="74.57" width="50.54" height="50.54" transform="translate(326.1 199.67) rotate(180)" style="fill: none"/>
    </clipPath>
    <clipPath id="clip-path-3">
      <rect id="SVGID-3" data-name="SVGID" x="77.07" y="74.57" width="50.54" height="50.54" transform="translate(204.69 199.67) rotate(180)" style="fill: none"/>
    </clipPath>
    <clipPath id="clip-path-4">
      <path id="SVGID-4" data-name="SVGID" d="M69.31,309.71l24.61-29.93s-4.13-3.59-10.45-8.3c-1.66-1.23-3.47-2.55-5.39-3.89C66.39,259.42,50.46,250,38.2,249.47a21.58,21.58,0,0,0-4.21.18,14.11,14.11,0,0,0-9.58,5.51C7.78,277.11,69.31,309.71,69.31,309.71Z" style="fill: none"/>
    </clipPath>
    <clipPath id="clip-path-5">
      <path id="SVGID-5" data-name="SVGID" d="M126.52,309.71l-24-29.27s55.21-54.88,69.52-33.92S126.52,309.71,126.52,309.71Z" style="fill: none"/>
    </clipPath>
    <clipPath id="clip-path-6">
      <path id="SVGID-6" data-name="SVGID" d="M88.81,281.91l17.48,12.54-18,29.89H60.37a7.36,7.36,0,0,1,2.16-5.67,27.39,27.39,0,0,1,4.94-3.82c1.73-1.18,7.91-2.47,9-4.24,1.91-3,1.71-7,.38-10.35s-3.67-6.14-6-8.89" style="fill: none"/>
    </clipPath>
  </defs>
  <title>Asset 4</title>
  <g id="Layer_2" data-name="Layer 2">
    <g id="Layer_1-2" data-name="Layer 1">
      <g>
        <path d="M29.21,324C23.6,315.75,18.68,309,16.55,299.17s-1.25-20.52,4.08-29S36.16,256,46,257.6c8.72,1.4,15.9,8,20.19,15.75s6.15,16.52,8,25.17a21.49,21.49,0,0,1,20.47-12.34,22.89,22.89,0,0,1,19.4,14.27,24.45,24.45,0,0,1-3.94,23.93" style="fill: #badfee"/>
        <path d="M232.89,323.94C225.48,313,219,304,216.17,291.1s-1.64-27.09,5.39-38.29,20.5-18.68,33.55-16.59c11.51,1.85,21,10.6,26.65,20.79s8.11,21.82,10.49,33.23c4.5-10.24,15.84-16.94,27-16.28s21.52,8.41,25.61,18.83a32.28,32.28,0,0,1-5.2,31.59" style="fill: #ff5200"/>
        <path d="M230,205.22a8.15,8.15,0,0,1-7-3.6,9.72,9.72,0,0,1-.51-9.76,8.37,8.37,0,0,1,7.78-4.36h0a8.85,8.85,0,0,1,.91,17.65h0A9.89,9.89,0,0,1,230,205.22Zm.24-16.06a6.76,6.76,0,0,0-6.31,3.48,8.13,8.13,0,0,0,.42,8.05A6.77,6.77,0,0,0,231,203.5a7.19,7.19,0,0,0-.74-14.34Z"/>
        <path d="M356.4,324.52a198.31,198.31,0,0,0-13.91-43.91c-5.89-12.69-12.73-22.8-20.32-30-9.44-9-20.08-13.53-31.65-13.53s-22.2,4.55-31.6,13.54c-7.58,7.24-14.38,17.36-20.22,30.06A197.67,197.67,0,0,0,225,324.52l-1.64-.27A199.11,199.11,0,0,1,237.19,280c5.93-12.9,12.85-23.18,20.58-30.57,9.72-9.29,20.74-14,32.75-14s23.05,4.72,32.8,14c7.76,7.39,14.71,17.67,20.69,30.56a200,200,0,0,1,14,44.3Z"/>
        <path d="M173.61,324.38s7.49-36,33.83-36,34,36,34,36" style="fill: #badfee"/>
        <path d="M195.72,324.52a126,126,0,0,0-8.81-27.79c-3.72-8-8-14.4-12.83-19-5.93-5.64-12.61-8.5-19.87-8.5s-13.94,2.86-19.84,8.51c-4.78,4.57-9.08,11-12.77,19a124.38,124.38,0,0,0-8.69,27.77l-1.65-.27a127.4,127.4,0,0,1,8.83-28.19c3.78-8.22,8.2-14.77,13.13-19.49,6.23-5.95,13.29-9,21-9s14.78,3,21,9c4.94,4.71,9.38,11.27,13.19,19.49a126.58,126.58,0,0,1,8.92,28.18Z"/>
        <g>
          <rect x="61.44" y="22.67" width="203.22" height="134.7" transform="translate(326.1 180.05) rotate(180)" style="fill: #ffdaa6"/>
          <g>
            <rect x="61.44" y="22.67" width="203.22" height="21.29" transform="translate(326.1 66.63) rotate(180)" style="fill: #ff5200"/>
            <g>
              <circle cx="250.53" cy="33.32" r="4.48" style="fill: #badfee"/>
              <path d="M228.41,33.32a4.49,4.49,0,1,0,4.49-4.49A4.49,4.49,0,0,0,228.41,33.32Z" style="fill: #badfee"/>
              <path d="M210.78,33.32a4.48,4.48,0,1,0,4.48-4.49A4.49,4.49,0,0,0,210.78,33.32Z" style="fill: #badfee"/>
            </g>
          </g>
          <rect x="198.49" y="74.57" width="50.54" height="50.54" transform="translate(447.51 199.67) rotate(180)" style="fill: #fff"/>
          <rect x="137.78" y="74.57" width="50.54" height="50.54" transform="translate(326.1 199.67) rotate(180)" style="fill: #fff"/>
          <rect x="77.07" y="74.57" width="50.54" height="50.54" transform="translate(204.69 199.67) rotate(180)" style="fill: #fff"/>
          <g style="clip-path: url(#clip-path)">
            <path d="M207.38,136.84l-1-1.33a57.67,57.67,0,0,0,21.89-37.36,33.52,33.52,0,0,1-9.74-5.85c-3-2.57-6.54-6.73-6.77-11.9a10.43,10.43,0,0,1,2.94-7.54,7.6,7.6,0,0,1,5.67-2.42,9.31,9.31,0,0,1,7.34,4.73,20.21,20.21,0,0,1,2.43,8.22,55.82,55.82,0,0,1,0,13.67,34,34,0,0,0,28.41-2.61l.86,1.43a35.73,35.73,0,0,1-29.5,2.85A59.31,59.31,0,0,1,207.38,136.84ZM220.15,72.1A6,6,0,0,0,215.89,74a8.69,8.69,0,0,0-2.47,6.29c.21,4.59,3.49,8.36,6.2,10.72a31.9,31.9,0,0,0,8.87,5.42,54.94,54.94,0,0,0,0-12.88,18.82,18.82,0,0,0-2.2-7.55,7.67,7.67,0,0,0-6-3.93Z" style="fill: #badfee"/>
          </g>
          <g style="clip-path: url(#clip-path-2)">
            <path d="M181.93,101a33.17,33.17,0,0,1-33.28-30.72l1.66-.13A31.65,31.65,0,0,0,195,96.53l.69,1.51A33.12,33.12,0,0,1,181.93,101Z" style="fill: #badfee"/>
          </g>
          <g style="clip-path: url(#clip-path-3)">
            <path d="M88.37,152.38c-3.64-8.64-7-18-6.7-27.6.29-10.66,5.59-20.19,13.5-24.29a19.16,19.16,0,0,1,13.52-1.37,18,18,0,0,1,6.79-8.9c7.74-5.18,19.43-3.18,25,4.28l-1.33,1c-5.08-6.79-15.71-8.61-22.76-3.9a16.37,16.37,0,0,0-6.14,8l.7.26a15.22,15.22,0,0,1,9.09,8.89,9.23,9.23,0,0,1,.19,6.42,5.48,5.48,0,0,1-5.47,3.62c-1.84-.21-3.53-1.53-4.9-3.83a18.57,18.57,0,0,1-1.68-14.25A17.83,17.83,0,0,0,95.94,102c-7.38,3.83-12.33,12.8-12.61,22.86-.26,9.32,3,18.44,6.57,26.91Zm21.39-51.19a16.89,16.89,0,0,0,1.54,12.93c.76,1.27,2,2.83,3.66,3a3.85,3.85,0,0,0,3.73-2.58,7.62,7.62,0,0,0-.2-5.24,13.62,13.62,0,0,0-8.14-7.92C110.15,101.33,110,101.25,109.76,101.19Z" style="fill: #badfee"/>
          </g>
        </g>
        <g>
          <polygon points="310.97 62.41 322.33 70.47 338.14 62.43 332.26 28.25 320.18 35.98 313.8 40.06 313.83 49.59 313.84 55.3 310.97 62.41" style="fill: #ffb68e"/>
          <path d="M320.18,36l-6.38,4.07,0,9.53a19.73,19.73,0,0,0,10.95-11C323.2,37.75,321.72,36.87,320.18,36Z"/>
          <path d="M307.45,40.58c9.78,8.57,19.25-1.21,19.25-1.21l6.41-17,.59-1.56.24-.65.13-.34s0-.21,0-.58-.05-.77-.11-1.31c0-.13,0-.27,0-.41-.35-2.84-1.39-7.79-4.53-11.7C326.74,2.54,322.65,0,316.28,0A10.79,10.79,0,0,0,311,1.38a11.76,11.76,0,0,0-1.51,1,16.92,16.92,0,0,0-4.65,6.2h0c-.1.2-.18.39-.27.59a26.73,26.73,0,0,0-1.09,3,32.35,32.35,0,0,0-.81,3.19C300.69,24.9,302.4,36.15,307.45,40.58Z" style="fill: #ffb68e"/>
          <path d="M312.1,30.5a2.48,2.48,0,0,1-1.8-.79,2.45,2.45,0,0,1-.64-1.86l.58-7.44,1.66.13L311.32,28a.76.76,0,0,0,.2.6.79.79,0,0,0,.58.25h0V30.5Z"/>
          <path d="M316.62,21.19c0,.56.33,1,.73,1s.73-.46.73-1-.33-1-.73-1S316.62,20.62,316.62,21.19Z"/>
          <path d="M305.52,21.2c0,.56.33,1,.73,1s.73-.46.73-1-.33-1-.73-1S305.52,20.64,305.52,21.2Z"/>
          <path d="M367.48,296.14l3.49,28.2H307.7c-.15-3.85,2.41-7.33,5.74-9.28s7.2-2.66,11-3.47,7.63-1.81,10.67-4.18a14.09,14.09,0,0,0,5.36-10.84"/>
          <path d="M329.66,251.44l18.81,21.31-52.22,35.73c-2.3-3.09-2.16-7.42-.51-10.9s4.44-6.27,7.09-9.06,5.28-5.81,6.45-9.48a14.11,14.11,0,0,0-1.69-12"/>
          <path d="M314.31,33.12l-.1-1.66a1.25,1.25,0,0,0,.89-.47,1.29,1.29,0,0,0,.25-1l1.63-.3a2.89,2.89,0,0,1-2.67,3.41Z"/>
          <path d="M319.2,16.07a2.29,2.29,0,0,1,.86.45,1,1,0,0,1,.33.84c-.11.51-.71.75-1.24.84a6.67,6.67,0,0,1-3.4-.36,1.33,1.33,0,0,1-.88-.76c-.22-.89,1-1.23,1.47-1.29A6.59,6.59,0,0,1,319.2,16.07Z"/>
          <path d="M307.45,15.84a2.08,2.08,0,0,1,.81.26.84.84,0,0,1,.41.68c0,.46-.51.75-.95.91a5.84,5.84,0,0,1-3,.19,1.15,1.15,0,0,1-.88-.53c-.32-.74.67-1.21,1.08-1.33A5.81,5.81,0,0,1,307.45,15.84Z"/>
          <g>
            <g>
              <path d="M258.27,73.46l-14.48,9.77S235.62,66,236.9,63.9c.77-1.24,1.75-.64,1.75-.64s-1-1.65-.44-2.64A1.54,1.54,0,0,1,240,60s-.69-1.56.79-2.07,5.84,3.15,9.73,7.08" style="fill: #ffb68e"/>
              <path d="M245.1,66.05a27,27,0,0,0-5.6-5.38l.92-1.39a28.89,28.89,0,0,1,6,5.74Z"/>
              <path d="M242.34,68.61a43.73,43.73,0,0,0-4.27-4.75l1.15-1.21a46.37,46.37,0,0,1,4.45,5Z"/>
              <path d="M249.48,73.65a6.64,6.64,0,0,1,1.44-6.59l1.21,1.15a4.92,4.92,0,0,0-1.08,4.9Z"/>
            </g>
            <path d="M250.48,65c-.61-2.67,0-6.61,2.44-6.22s1.57,3.57,2.31,6.51a69.76,69.76,0,0,0,3,8.18" style="fill: #ffb68e"/>
          </g>
          <path d="M264.88,206.27c4.33,20,37.92,69.18,37.92,69.18l19.26-14.14,12-8.81-18.24-33.25-8-14.64,5-11.53L322,171.84l.78-1.82L354,123.78H298.47S260.56,186.31,264.88,206.27Z" style="fill: #ffdaa6"/>
          <polygon points="334.06 252.5 315.82 219.25 322.06 261.31 334.06 252.5" style="fill: #ffcc85"/>
          <rect x="292.16" y="252.38" width="41.12" height="1.66" transform="translate(-89.03 230.67) rotate(-35.79)"/>
          <polygon points="312.78 193.08 321.97 171.84 314.77 163.36 312.78 193.08" style="fill: #ffcc85"/>
          <polygon points="314.77 163.36 330.74 301.73 374.31 301.73 358.11 159.7 354.34 126.61 354.02 123.78 349.94 127.9 336.19 141.76 314.77 163.36" style="fill: #ffdaa6"/>
          <path d="M309.46,2.4l.14.07a10.12,10.12,0,0,0,7.25,0A8.73,8.73,0,0,0,325,6.18a15.36,15.36,0,0,0,8.94,11.34c-.35-2.84-1.39-7.79-4.53-11.7C326.74,2.54,322.65,0,316.28,0A10.79,10.79,0,0,0,311,1.38,11.76,11.76,0,0,0,309.46,2.4Z"/>
          <path d="M329.72,19.21a3.7,3.7,0,0,1,3.38-1.62,5.24,5.24,0,0,1,3.42,1.76,6.79,6.79,0,0,1,.49,8.29,6.78,6.78,0,0,1-8,2.17" style="fill: #ffb68e"/>
          <path d="M333.92,26.49l-1.54-.63a5.43,5.43,0,0,0-.1-4.33l1-1.14,2.75,1L335.49,23l-1.16-.42A7.15,7.15,0,0,1,333.92,26.49Z"/>
          <path d="M298.14,76.56l.33,47.22s12.44,9.72,37.33,6.87a96.15,96.15,0,0,0,14.14-2.75c1.44-.39,2.9-.82,4.4-1.29,2.11-.67,4.29-1.42,6.52-2.26q.74-.27,1.47-.57L354,76.56Z" style="fill: #badfee"/>
          <path d="M335.8,130.65a96.15,96.15,0,0,0,14.14-2.75c1.44-.39,2.9-.82,4.4-1.29,2.11-.67,4.29-1.42,6.52-2.26L345.37,95.51l.67,15.64Z" style="fill: #96d0e2"/>
          <rect x="353.54" y="130.05" width="1.66" height="172.28" transform="translate(-23.03 43.31) rotate(-6.77)" style="fill: #fff"/>
          <path d="M332.07,137.75l4.12,4L356,161l2.1-1.34-3.77-33.09c-1.5.47-3,.9-4.4,1.29a96.15,96.15,0,0,1-14.14,2.75Z" style="fill: #ffcc85"/>
          <g>
            <path d="M334.69,147.4c-2.53,2.36-4.81,2.67-5.84,1.19-.85-1.21,3.19-4.58,7-6.91a54.43,54.43,0,0,0,5.3-3.77" style="fill: #ffb68e"/>
            <g>
              <path d="M341.2,137.91,354,149.83s-15,11.84-17.29,11c-1.37-.47-1-1.56-1-1.56s-1.38,1.38-2.48,1a1.55,1.55,0,0,1-1-1.56,1.47,1.47,0,0,1-2.19-.31c-.91-1.44,1.75-6.39,4.71-11.07" style="fill: #ffb68e"/>
              <path d="M332.94,159.07l-1.55-.58a27.88,27.88,0,0,1,4.24-7.13l1.3,1A27.35,27.35,0,0,0,332.94,159.07Z"/>
              <path d="M336.37,159.74l-1.43-.84a46.63,46.63,0,0,1,3.83-5.45l1.27,1.07A47,47,0,0,0,336.37,159.74Z"/>
            </g>
          </g>
          <path d="M238.61,83.21s10,44.9,34.25,48.89c8.61,1.41,15.54-1.47,20.91-5.79a39.37,39.37,0,0,0,4.69-4.51h0a55.77,55.77,0,0,0,9.66-16l37.25-10.31,4.33,16.63-13.31,25.61,19,17.63S384.29,132.1,383,107.82s-19-47.89-24.62-49.89-21.47-2.87-21.47-2.87-16.11,21.5-23.1-.12c0,0-16,.66-20.95,7s-16.63,30.6-16.63,30.6l-18-22Z" style="fill: #badfee"/>
          <path d="M293.77,126.31a39.37,39.37,0,0,0,4.69-4.51h0l-.32-25.94Z" style="fill: #96d0e2"/>
          <path d="M378.16,127.25c-6.09-5-8.92-10.26-8.42-15.52.35-3.72,2.44-7.47,6-10.83a29.3,29.3,0,0,1,5.33-4l.8,1.46c-.1.05-9.75,5.46-10.5,13.51-.44,4.68,2.19,9.42,7.82,14.07Z"/>
          <path d="M288.64,129.68c-.05-.09-5.08-9-12.25-9.47-4.26-.26-8.51,2.52-12.64,8.24l-1.35-1c4.49-6.22,9.23-9.23,14.09-8.93,3.38.2,6.81,2.07,9.92,5.38a26.87,26.87,0,0,1,3.68,4.95Z"/>
          <rect x="329.4" y="288" width="43.44" height="1.66"/>
          <path d="M357.35,319.19A6.16,6.16,0,1,1,363.5,313,6.16,6.16,0,0,1,357.35,319.19Zm0-10.64a4.49,4.49,0,1,0,4.49,4.49A4.49,4.49,0,0,0,357.35,308.55Z" style="fill: #fff"/>
        </g>
        <g>
          <path d="M132.84,274.56s-5.66,27-36.92,25.8S54,266.47,54,266.47" style="fill: #ffcc85"/>
          <path d="M105,209.87a16.42,16.42,0,0,0,28.65-5c1.1-3.42.93-7.5-1.44-10.21-1.55-1.78-3.81-2.73-5.85-3.92s-4.07-2.87-4.48-5.19c-.47-2.63,1.25-5.29.72-7.9-.49-2.43-2.79-4.08-5.1-5s-4.83-1.32-7-2.57-3.89-3.72-3.23-6.12C100,166.4,92.75,166.66,85,166.48c.16,2.32-2.61,4.31-4.73,5.25s-4.48,1.15-6.71,1.8-4.49,2-5.25,4.15c-.81,2.35.33,5-.44,7.41-1.06,3.26-5,4.36-7.82,6.3A12.24,12.24,0,0,0,72.9,212.21"/>
          <polygon points="84.02 203.08 87.02 211.84 109.56 208.55 106.28 201.84 103.03 185.74 86.52 176.79 84.02 203.08" style="fill: #ffb68e"/>
          <path d="M93.91,186.43a19.18,19.18,0,0,0,11.25,9.85l-2-10.06-4.93-2.68C96.76,184.5,95.38,185.45,93.91,186.43Z"/>
          <path d="M82.18,168.22h0c0,.19,0,.38,0,.55s0,.08,0,.11a1.64,1.64,0,0,1,0,.22l.06.43,0,.29,0,.13,0,.26c0,.25.08.46.11.63s.08.42.09.5a.32.32,0,0,0,0,.06l.58.85,10.89,16s11.21,7.09,18.51-3.27c3.86-5.49,2.76-16.95-1.51-25.61l-.39-.76c-.09-.17-.18-.35-.28-.52l-.45-.82h0l-.07-.12-.1-.17,0-.08c-.18-.31-.39-.62-.59-.92l-.11-.18c-.11-.16-.21-.31-.32-.45s-.38-.55-.58-.81a15.92,15.92,0,0,0-7.46-5.77,10.14,10.14,0,0,0-2-.44c-.31,0-.63-.06-.94-.07a6.62,6.62,0,0,0-.77,0l-.66.05c-.29,0-.59.08-.9.14l-.49.1-.19.05c-5.93,1.47-9.16,4.81-10.87,8.46A22.35,22.35,0,0,0,82.18,168.22Z" style="fill: #ffb68e"/>
          <path d="M105.9,176.5l-.38-1.62a.74.74,0,0,0,.47-.36.7.7,0,0,0,.06-.6L103.79,167l1.58-.52,2.26,6.92a2.42,2.42,0,0,1-1.73,3.09Z"/>
          <path d="M99.48,168.69c.13.54-.07,1.05-.45,1.14s-.8-.27-.93-.8.08-1.05.46-1.14S99.36,168.16,99.48,168.69Z"/>
          <path d="M110,166.16a.9.9,0,0,1-.46,1.14c-.38.09-.8-.27-.93-.81a.89.89,0,0,1,.46-1.13C109.46,165.27,109.88,165.62,110,166.16Z"/>
          <path d="M96,164.74a2.76,2.76,0,0,0-.76.52.65.65,0,0,0-.23.66c.15.33.74.33,1.25.25a9.16,9.16,0,0,0,3.14-1.12c.34-.2.7-.46.75-.75.12-.67-1-.58-1.5-.5A9,9,0,0,0,96,164.74Z"/>
          <path d="M107,161.78a2.41,2.41,0,0,0-.72.35.56.56,0,0,0-.27.56c.1.31.61.41,1.06.42a7.85,7.85,0,0,0,2.88-.52c.32-.12.66-.3.74-.55.17-.58-.86-.68-1.27-.68A7.65,7.65,0,0,0,107,161.78Z"/>
          <path d="M100.62,177.57a2.11,2.11,0,1,0,4.21-.19" style="fill: #fff"/>
          <g>
            <g>
              <path d="M174.48,195.88l14.2,10.18s8.67-17,7.45-19.12c-.73-1.25-1.73-.69-1.73-.69s1.09-1.61.52-2.63a1.56,1.56,0,0,0-1.73-.69s.73-1.53-.73-2.08-5.93,3-9.94,6.78" style="fill: #ffb68e"/>
              <path d="M187.87,188.85l-1.28-1.06a28.41,28.41,0,0,1,6.16-5.56l.88,1.41A27.13,27.13,0,0,0,187.87,188.85Z"/>
              <path d="M190.55,191.49l-1.3-1a47.48,47.48,0,0,1,4.6-4.82l1.11,1.24A45.41,45.41,0,0,0,190.55,191.49Z"/>
              <path d="M183.27,196.32l-1.56-.58a4.92,4.92,0,0,0-.93-4.93L182,189.7A6.63,6.63,0,0,1,183.27,196.32Z"/>
            </g>
            <path d="M182.52,187.63c.69-2.64.24-6.6-2.25-6.28s-1.68,3.52-2.5,6.43a70.18,70.18,0,0,1-3.29,8.1" style="fill: #ffb68e"/>
          </g>
          <path d="M44.8,225.81c5.23-9.2,12.12-16.49,15.2-18.54,5.1-3.4,23.91-4.29,23.91-4.29s17.3,10,22.28-1c0,0,13-1,19.66,2.31,5.62,2.81,21.28,18.59,21.28,18.59l24.57-31.29,21.64,15.27s-14.65,45.55-32.23,52.65a30.93,30.93,0,0,1-25.32-.58,24.51,24.51,0,0,1-4.59-2.75l.35,14.62S104.63,285.44,57,265.54V230.66Z" style="fill: #ff5200"/>
          <path d="M131.18,236.87l0,19.29a24.51,24.51,0,0,0,4.59,2.75Z" style="fill: #e20"/>
          <path d="M109.4,281.91,91.93,294.45l18,29.89h27.89a7.36,7.36,0,0,0-2.16-5.67,27.11,27.11,0,0,0-4.95-3.82c-1.72-1.18-7.9-2.47-9-4.24-1.91-3-1.71-7-.38-10.35s3.67-6.14,6-8.89"/>
          <path d="M88.81,281.91l17.48,12.54-18,29.89H60.37a7.36,7.36,0,0,1,2.16-5.67,27.39,27.39,0,0,1,4.94-3.82c1.73-1.18,7.91-2.47,9-4.24,1.91-3,1.71-7,.38-10.35s-3.67-6.14-6-8.89"/>
          <path d="M69.31,309.71l24.61-29.93s-4.13-3.59-10.45-8.3c-1.66-1.23-3.47-2.55-5.39-3.89C66.39,259.42,50.46,250,38.2,249.47a21.58,21.58,0,0,0-4.21.18,14.11,14.11,0,0,0-9.58,5.51C7.78,277.11,69.31,309.71,69.31,309.71Z" style="fill: #ffdaa6"/>
          <g style="clip-path: url(#clip-path-4)">
            <path d="M79.24,306.22,48.06,284.06c-7.29-5.18-14.83-10.54-21.06-17.24-7-7.55-11.34-15.89-12.5-24.14l1.65-.23c1.11,7.91,5.28,15.94,12.07,23.24,6.12,6.57,13.58,11.88,20.81,17l31.18,22.16Z"/>
          </g>
          <path d="M126.52,309.71l-24-29.27s55.21-54.88,69.52-33.92S126.52,309.71,126.52,309.71Z" style="fill: #ffdaa6"/>
          <g style="clip-path: url(#clip-path-5)">
            <path d="M116.74,307.43l-1.13-1.22,28-26c6.49-6,13.19-12.27,18.4-19.59C167.81,252.46,170.9,244,171,236l1.66,0c-.06,8.32-3.26,17.16-9.23,25.56-5.31,7.46-12.08,13.75-18.63,19.84Z"/>
          </g>
          <path d="M34,249.65c.06,10.24,3.9,20.81,18,24.8,11,3.1,21.93,1,31.45-3-1.66-1.23-3.47-2.55-5.39-3.89C66.39,259.42,50.46,250,38.2,249.47A21.58,21.58,0,0,0,34,249.65Z" style="fill: #ffcc85"/>
          <path d="M38.2,249.47c12.26.57,28.19,10,39.88,18.12,1.92,1.34,3.73,2.66,5.39,3.89,16.58-6.88,28.75-19.31,28.75-19.31l-11-25.94L72.3,231.55,70.63,224l-2,11.31C64.53,242.51,37.59,241.48,38.2,249.47Z" style="fill: #e20"/>
          <g>
            <path d="M110.66,230.9c3.17-1.38,4.37-3.34,3.42-4.88-.77-1.26-5.47,1.11-9.15,3.72a55.88,55.88,0,0,1-5.57,3.35" style="fill: #ffb68e"/>
            <g>
              <path d="M99.36,233.09l5.85,16.46s16.83-9,17-11.45c.12-1.45-1-1.55-1-1.55s1.81-.71,1.92-1.87a1.55,1.55,0,0,0-1-1.55s1.48-.84.6-2.13-6.57-.94-12-.1" style="fill: #ffb68e"/>
              <path d="M114.36,235l-.45-1.6a28.23,28.23,0,0,1,8.24-1l-.09,1.66A27.32,27.32,0,0,0,114.36,235Z"/>
              <path d="M115.05,238.66l-.47-1.6a46.43,46.43,0,0,1,6.53-1.34l.2,1.65A45.48,45.48,0,0,0,115.05,238.66Z"/>
            </g>
          </g>
          <g>
            <path d="M121.78,296.33c-9.75,7-46-49-64.77-79.63-6.93-11.3-11.49-19.16-11.49-19.16l7-5s6,6.8,14.6,16.93C90.34,236.92,132,289,121.78,296.33Z" style="fill: #badfee"/>
            <path d="M67.14,209.43,57,216.7c-6.93-11.3-11.49-19.16-11.49-19.16l7-5S58.58,199.3,67.14,209.43Z" style="fill: #fff"/>
            <polyline points="52.54 192.5 49.87 181.37 32.26 171.67 35.83 191.46 45.51 197.54" style="fill: #ffdaa6"/>
            <rect x="36.72" y="169.96" width="1.66" height="18.16" transform="translate(-97.38 55.51) rotate(-35.68)"/>
          </g>
          <path d="M44.8,225.81c-4.12,7.24-7.21,15.67-6.6,23.66a22.66,22.66,0,0,0,5.87,13.76c8.62,9.6,21.81,8.6,34,4.36,16-5.56,30.29-16.67,30.29-16.67l-8.8-21.35-30.92,5.69" style="fill: #ff5200"/>
          <path d="M82.18,168.22h0c0,.19,0,.38,0,.55s0,.08,0,.11a1.64,1.64,0,0,1,0,.22,5.29,5.29,0,0,0,.87.31,5.08,5.08,0,0,0,4.52-1.11c2.6-2.31,2.18-6.65,4.37-9.36.68-.82,1.56-1.46,2.24-2.27a6.27,6.27,0,0,0,1.39-3.89,6.73,6.73,0,0,0,3.25,1.6c1.79.31,3.81,0,5.3,1a15.55,15.55,0,0,1,2.15,2.35,5.74,5.74,0,0,0,4.76,1.63l-.39-.76c-.09-.17-.18-.35-.28-.52l-.45-.82h0l-.07-.12-.1-.17,0-.08c-.18-.31-.39-.62-.59-.92l-.11-.18c-.11-.16-.21-.31-.32-.45s-.38-.55-.58-.81a15.92,15.92,0,0,0-7.46-5.77,10.14,10.14,0,0,0-2-.44c-.31,0-.63-.06-.94-.07a6.62,6.62,0,0,0-.77,0l-.66.05c-.29,0-.59.08-.9.14l-.49.1-.19.05c-5.93,1.47-9.16,4.81-10.87,8.46A22.35,22.35,0,0,0,82.18,168.22Z"/>
          <path d="M86.77,169.44a3.65,3.65,0,0,0-3.47-1.15,5.13,5.13,0,0,0-3.09,2.13,6.42,6.42,0,0,0,8.58,9.18" style="fill: #ffb68e"/>
          <path d="M83.22,176.87a6.85,6.85,0,0,1,.35-3.85l-1.16.18-.25-1.65,2.81-.43.8,1.32a5.22,5.22,0,0,0-.92,4.1Z"/>
          <g style="clip-path: url(#clip-path-6)">
            <path d="M105.47,309.75A20.07,20.07,0,0,1,95,299.41a18.37,18.37,0,0,1,.19-14.29l1.53.66a16.69,16.69,0,0,0-.18,13,18.41,18.41,0,0,0,9.6,9.46Z" style="fill: #fff"/>
          </g>
          <rect x="176.74" y="193.27" width="1.66" height="29.77" transform="translate(-94.79 234.2) rotate(-55)" style="fill: #fff"/>
          <rect x="93.38" y="230.66" width="1.66" height="27.63" transform="translate(-71.8 41.78) rotate(-18.24)" style="fill: #fff"/>
        </g>
        <path d="M129.65,140.62l-4.93-4.94v-1.17l6.73-6.73-5.54-5.54.34-1.38,25.06-8,1,1.05-8,25.06-1.38.33-5.38-5.37-6.73,6.73Zm-3.17-5.52,3.76,3.75,6.73-6.73h1.18l5,5,7.13-22.23L128.05,122l5.17,5.16v1.17Z"/>
        <path d="M1.66,254.39,0,254.32a20.49,20.49,0,0,1,6.45-14.11,21.51,21.51,0,0,1,14-5.5c0-3.58,0-8.06,0-12.05,0-4.3,0-8.36,0-8.69l.83-.05v0l-.83-.13.89-.71c.77.06.78.7.78,1.51,0,.45,0,1.09,0,1.89,0,1.58,0,3.78,0,6.21,0,4.3,0,9.18,0,12.88l-.86.83a19.8,19.8,0,0,0-13.67,5A18.83,18.83,0,0,0,1.66,254.39Z"/>
      </g>
    </g>
  </g>
</svg>
